<?xml version="1.0" ?><svg height="600mm" id="svg4658" version="1.1" viewBox="0 0 2125.9843 2125.9842" width="600mm" xmlns="http://www.w3.org/2000/svg" xmlns:cc="http://creativecommons.org/ns#" xmlns:dc="http://purl.org/dc/elements/1.1/" xmlns:inkscape="http://www.inkscape.org/namespaces/inkscape" xmlns:rdf="http://www.w3.org/1999/02/22-rdf-syntax-ns#" xmlns:sodipodi="http://sodipodi.sourceforge.net/DTD/sodipodi-0.dtd" xmlns:svg="http://www.w3.org/2000/svg"><defs id="defs4660"/><g id="layer1" transform="translate(0,1073.6222)"><path d="m 192.41457,-397.04116 1746.17633,0 c 76.8159,0 138.6569,68.0604 138.6569,152.60169 L 1064.1725,492.68721 53.757662,-244.43947 c 0,-84.54129 61.841018,-152.60169 138.656908,-152.60169 z" id="path4263" style="opacity:1;fill:#989691;fill-opacity:1;stroke:none;stroke-width:1;stroke-miterlimit:4;stroke-dasharray:none;stroke-opacity:1"/><path d="m 1064.559,-1054.6699 c -15.2313,-0.09 -26.8523,9.0294 -39.6267,17.3249 -274.57684,178.30798 -748.5434,538.51938 -912.7722,664.35008 -18.019955,13.80659 -27.690113,27.74675 -32.879925,38.38097 -15.844493,24.80902 -25.134267,55.08986 -25.134267,87.84933 l 2023.489192,0 c 0,-36.75723 -11.6951,-70.39722 -31.2237,-96.68414 -7.4102,-10.64661 -17.1977,-21.82853 -29.9572,-31.50987 -167.6319,-127.19288 -639.924,-482.93724 -912.4967,-661.89877 -12.7456,-8.3682 -24.1515,-17.7226 -39.3985,-17.8125 z" id="path4265" style="opacity:1;fill:#ebeae3;fill-opacity:1;stroke:none;stroke-width:1;stroke-miterlimit:4;stroke-dasharray:none;stroke-opacity:1"/><path d="m 2076.9182,-245.53858 z m 0,0 0,1140.45938 c 0,78.23219 -61.8398,141.2154 -138.6556,141.2154 l -1746.175,0 874.4176,-544.5481 z" id="path4279" style="opacity:1;fill:#eeede9;fill-opacity:1;stroke:none;stroke-width:1;stroke-miterlimit:4;stroke-dasharray:none;stroke-opacity:1"/><path d="m 52.536584,-249.41508 z m 0,0 0,1140.45947 c 0,78.23219 61.839806,141.21551 138.655686,141.21551 l 1746.17483,0 -874.4177,-544.54811 z" id="path4281" style="opacity:1;fill:#e9e7e0;fill-opacity:1;stroke:none;stroke-width:1;stroke-miterlimit:4;stroke-dasharray:none;stroke-opacity:1"/></g></svg>